<svg width="59" height="58" viewBox="0 0 59 58" fill="none" xmlns="http://www.w3.org/2000/svg">
<path fill-rule="evenodd" clip-rule="evenodd" d="M19.3426 4.10107H43.5872C45.0208 4.10107 46.1901 5.27035 46.1901 6.704V21.36C46.1901 22.7937 45.0208 23.9629 43.5872 23.9629H42.1961C42.1676 23.963 42.1403 23.9743 42.1201 23.9945C42.0999 24.0146 42.0886 24.042 42.0886 24.0705V30.8248C42.0888 30.846 42.0827 30.8667 42.0711 30.8843C42.0594 30.902 42.0427 30.9157 42.0231 30.9238C42.0038 30.9323 41.9823 30.9348 41.9616 30.9309C41.9408 30.9271 41.9216 30.9171 41.9066 30.9023L34.7248 23.9931C34.715 23.9834 34.7033 23.9757 34.6905 23.9705C34.6777 23.9654 34.664 23.9628 34.6502 23.9631H31.5621C31.5336 23.963 31.5063 23.9517 31.4861 23.9315C31.466 23.9114 31.4546 23.884 31.4546 23.8555V18.8747C31.4546 17.2935 30.1679 16.0067 28.5867 16.0067H16.8471C16.8186 16.0067 16.7912 15.9954 16.7711 15.9752C16.7509 15.955 16.7396 15.9277 16.7395 15.8992V6.704C16.7395 5.27035 17.9089 4.10107 19.3426 4.10107ZM11.0637 50.7014V37.6547C11.0637 37.2823 10.7564 36.975 10.384 36.975H5.41597C5.04361 36.975 4.73633 37.2823 4.73633 37.6547V53.2193C4.73633 53.5917 5.04373 53.8989 5.41597 53.8989H10.384C10.7564 53.8989 11.0637 53.5917 11.0637 53.2193V50.7014ZM12.5692 39.8314V50.2941C12.5692 50.3273 12.5827 50.3558 12.6082 50.3771C12.6203 50.3874 12.6346 50.3948 12.6499 50.3987C12.6653 50.4026 12.6814 50.403 12.6969 50.3998C13.4247 50.2594 14.1521 50.1167 14.879 49.9719C19.4219 49.0716 23.4363 48.4877 25.6023 49.1166C27.0524 49.5376 28.2122 49.8634 29.8239 49.6875C34.5155 49.1751 36.8666 49.0366 39.0448 48.0413C43.1365 46.1717 46.4256 41.9486 53.7062 34.9364C54.9382 33.7499 54.1004 30.8349 51.4232 32.5179C51.3035 32.5931 51.1933 32.6849 51.0758 32.7665C51.0747 32.7672 51.0737 32.768 51.0728 32.7687L41.5039 39.9148C41.487 39.9271 41.4742 39.9441 41.467 39.9637C41.4598 39.9833 41.4585 40.0046 41.4634 40.0249C41.4913 40.1457 41.4884 40.2716 41.455 40.391C41.0589 41.8498 39.6944 42.8958 38.1658 42.8958H30.7097C30.51 42.8958 30.3186 42.8165 30.1774 42.6753C30.0362 42.5341 29.9569 42.3427 29.9569 42.143C29.9569 41.9434 30.0362 41.7519 30.1774 41.6108C30.3186 41.4696 30.51 41.3903 30.7097 41.3903H38.1658C39.0447 41.3903 39.7589 40.8179 40.0105 39.9831C40.0123 39.9773 40.0145 39.9717 40.0171 39.9663L40.1055 39.7886C40.1119 39.7763 40.1157 39.7628 40.1167 39.749C40.1178 39.7351 40.1161 39.7212 40.1117 39.7081C40.0883 39.6344 40.0764 39.5575 40.0765 39.4801H40.076C40.076 38.431 39.2149 37.5701 38.1659 37.5701H28.4018C28.2628 37.5703 28.1265 37.5318 28.0081 37.459C28.0055 37.4573 28.0027 37.4558 27.9999 37.4543L24.5814 35.7451C22.5156 34.7122 20.2521 34.834 18.3062 36.0849L12.6189 39.7411C12.6035 39.7506 12.5908 39.7638 12.5821 39.7797C12.5733 39.7955 12.5689 39.8133 12.5692 39.8314ZM28.5867 17.4189H15.0277C14.2259 17.4189 13.572 18.0728 13.572 18.8747V27.0712C13.572 27.873 14.2259 28.5268 15.0277 28.5268H15.7583C15.8176 28.5268 15.8658 28.5751 15.8658 28.6344V32.2539C15.8658 32.2979 15.8907 32.3355 15.9311 32.3528C15.9716 32.37 16.0159 32.362 16.0477 32.3315L19.9926 28.5567C20.0024 28.547 20.0141 28.5394 20.0268 28.5343C20.0396 28.5292 20.0533 28.5266 20.067 28.5268H28.5869C29.3886 28.5268 30.0425 27.873 30.0425 27.0712V18.8747C30.0425 18.0728 29.3885 17.4189 28.5867 17.4189ZM18.7286 23.7599L24.9035 23.6856C25.1024 23.6832 25.2922 23.602 25.4311 23.4597C25.5701 23.3175 25.6469 23.1258 25.6445 22.9269C25.6422 22.7281 25.5609 22.5383 25.4187 22.3993C25.2764 22.2604 25.0847 22.1836 24.8859 22.1859L18.711 22.2603C18.6125 22.2615 18.5152 22.282 18.4247 22.3207C18.3342 22.3595 18.2521 22.4157 18.1833 22.4861C18.1145 22.5566 18.0603 22.6399 18.0237 22.7313C17.987 22.8227 17.9688 22.9205 17.97 23.0189C17.9711 23.1174 17.9917 23.2147 18.0304 23.3052C18.0692 23.3957 18.1254 23.4777 18.1958 23.5466C18.2663 23.6154 18.3496 23.6696 18.441 23.7062C18.5324 23.7429 18.6301 23.7611 18.7286 23.7599ZM21.7527 11.6999L41.1771 11.6255C41.376 11.6255 41.5667 11.5465 41.7074 11.4059C41.848 11.2653 41.927 11.0746 41.927 10.8757C41.927 10.6768 41.848 10.4861 41.7074 10.3455C41.5667 10.2049 41.376 10.1259 41.1771 10.1259L21.7527 10.2002C21.5539 10.2002 21.3631 10.2792 21.2225 10.4199C21.0819 10.5605 21.0029 10.7512 21.0029 10.9501C21.0029 11.1489 21.0819 11.3396 21.2225 11.4803C21.3631 11.6209 21.5539 11.6999 21.7527 11.6999ZM34.6092 18.2431L41.1829 18.1687C41.3818 18.1672 41.5719 18.0867 41.7114 17.9449C41.8509 17.8032 41.9284 17.6119 41.9269 17.413C41.9253 17.2141 41.8448 17.024 41.7031 16.8845C41.5613 16.745 41.37 16.6675 41.1711 16.6691L34.5974 16.7435C34.4989 16.7442 34.4016 16.7644 34.3109 16.8028C34.2202 16.8412 34.138 16.8971 34.0689 16.9673C33.9998 17.0374 33.9453 17.1205 33.9083 17.2118C33.8713 17.3031 33.8527 17.4007 33.8535 17.4992C33.8543 17.5977 33.8744 17.695 33.9128 17.7857C33.9512 17.8764 34.0071 17.9586 34.0773 18.0277C34.1475 18.0967 34.2306 18.1513 34.3218 18.1883C34.4131 18.2252 34.5108 18.2439 34.6092 18.2431Z" fill="#3AA735"/>
</svg>
