<svg width="58" height="58" viewBox="0 0 58 58" fill="none" xmlns="http://www.w3.org/2000/svg">
<path d="M24.8765 38.9687C30.3557 42.1496 37.8268 37.835 37.6818 31.358C37.6787 29.0594 36.7642 26.8559 35.139 25.2305C33.5137 23.605 31.3103 22.6904 29.0117 22.687C20.0172 22.7568 17.0882 34.7202 24.8765 38.9687Z" fill="#3AA735"/>
<path d="M39.7467 41.1682L35.3477 39.7019C33.5263 41.0877 31.3008 41.838 29.0121 41.838C26.7235 41.838 24.498 41.0877 22.6765 39.7019L18.2785 41.1682C16.7972 41.6597 15.5084 42.6055 14.5952 43.8712C13.6821 45.1369 13.191 46.6581 13.1917 48.2188V51.5946C13.1932 52.3287 13.4854 53.0323 14.0045 53.5514C14.5235 54.0704 15.2271 54.3627 15.9612 54.3641H42.063C42.7971 54.3627 43.5007 54.0704 44.0198 53.5514C44.5388 53.0323 44.8311 52.3287 44.8325 51.5946V48.2188C44.8333 46.6582 44.3424 45.1371 43.4294 43.8714C42.5164 42.6057 41.2278 41.6599 39.7467 41.1682ZM18.1435 22.5149L22.034 23.0677C22.1729 23.0871 22.3144 23.0741 22.4474 23.0295C22.5804 22.985 22.7013 22.9102 22.8005 22.811C22.8997 22.7118 22.9745 22.591 23.019 22.458C23.0635 22.325 23.0766 22.1834 23.0572 22.0445L22.5043 18.1531C23.4496 16.2776 23.7809 14.1522 23.4512 12.0779C23.1215 10.0037 22.1476 8.0857 20.6674 6.59569C10.9433 -2.35806 -2.3695 10.9511 6.58425 20.6788C8.07576 22.1569 9.99379 23.1293 12.0676 23.4587C14.1415 23.7882 16.2664 23.458 18.1426 22.5149H18.1435ZM10.2682 16.994C10.0987 16.8231 10.0036 16.5922 10.0036 16.3515C10.0036 16.1108 10.0987 15.8799 10.2682 15.7089L12.3408 13.6363L10.2682 11.5638C10.0977 11.3932 10.0021 11.162 10.0021 10.9209C10.0022 10.6798 10.0981 10.4486 10.2686 10.2782C10.4391 10.1078 10.6704 10.0121 10.9115 10.0122C11.1525 10.0123 11.3837 10.1082 11.5541 10.2787L13.6267 12.3513L15.6993 10.2787C15.7829 10.1908 15.8832 10.1205 15.9944 10.0719C16.1056 10.0234 16.2253 9.99756 16.3466 9.99602C16.4679 9.99449 16.5883 10.0172 16.7007 10.063C16.813 10.1087 16.9151 10.1764 17.0009 10.2622C17.0867 10.348 17.1544 10.45 17.2001 10.5624C17.2458 10.6748 17.2686 10.7951 17.267 10.9164C17.2655 11.0377 17.2397 11.1575 17.1912 11.2687C17.1426 11.3798 17.0723 11.4802 16.9844 11.5638L14.9118 13.6363L16.9844 15.7089C17.1477 15.8808 17.2374 16.1096 17.2344 16.3467C17.2314 16.5838 17.1359 16.8103 16.9683 16.9779C16.8006 17.1455 16.5741 17.2411 16.3371 17.2441C16.1 17.2471 15.8712 17.1573 15.6993 16.994L13.6267 14.9214L11.5541 16.994C11.3823 17.162 11.1515 17.2561 10.9111 17.2561C10.6708 17.2561 10.44 17.162 10.2682 16.994ZM51.4391 6.59569C43.2828 -1.25515 30.6035 8.0031 35.5199 18.1531L34.9671 22.0445C34.9484 22.1834 34.962 22.3247 35.0068 22.4574C35.0517 22.5901 35.1266 22.7107 35.2257 22.8097C35.3248 22.9088 35.4455 22.9836 35.5782 23.0283C35.711 23.0731 35.8523 23.0865 35.9912 23.0677L39.8826 22.5149C49.8695 27.5473 59.3398 14.5825 51.44 6.59569H51.4391ZM48.2083 12.161L43.9825 16.3877C43.8987 16.4717 43.7992 16.5383 43.6896 16.5838C43.5801 16.6293 43.4626 16.6527 43.344 16.6527C43.2254 16.6527 43.1079 16.6293 42.9984 16.5838C42.8888 16.5383 42.7893 16.4717 42.7056 16.3877L40.5877 14.2789C40.5033 14.1944 40.4364 14.0942 40.3907 13.9839C40.3451 13.8736 40.3216 13.7554 40.3216 13.636C40.3217 13.5167 40.3452 13.3985 40.391 13.2882C40.4367 13.1779 40.5037 13.0777 40.5881 12.9934C40.6726 12.909 40.7728 12.8421 40.8831 12.7964C40.9934 12.7508 41.1116 12.7273 41.231 12.7273C41.3503 12.7274 41.4685 12.7509 41.5788 12.7967C41.6891 12.8424 41.7892 12.9094 41.8736 12.9938L43.339 14.4692L46.9233 10.885C47.0947 10.726 47.3211 10.6394 47.5549 10.6434C47.7888 10.6474 48.012 10.7416 48.178 10.9064C48.3439 11.0712 48.4398 11.2938 48.4454 11.5276C48.4511 11.7614 48.3661 11.9883 48.2083 12.161Z" fill="#3AA735"/>
</svg>
