<svg width="59" height="58" viewBox="0 0 59 58" fill="none" xmlns="http://www.w3.org/2000/svg">
<path d="M17.5588 56.2941C17.5588 57.2324 16.7912 58 15.8529 58H2.20588C1.26765 58 0.5 57.2324 0.5 56.2941V42.6471C0.5 41.7088 1.26765 40.9412 2.20588 40.9412C3.14412 40.9412 3.91176 41.7088 3.91176 42.6471V54.5882H15.8529C16.7912 54.5882 17.5588 55.3559 17.5588 56.2941ZM2.20588 17.0588C3.14412 17.0588 3.91176 16.2912 3.91176 15.3529V3.41176H15.8529C16.7912 3.41176 17.5588 2.64412 17.5588 1.70588C17.5588 0.767647 16.7912 0 15.8529 0H2.20588C1.26765 0 0.5 0.767647 0.5 1.70588V15.3529C0.5 16.2912 1.26765 17.0588 2.20588 17.0588ZM56.7941 40.9412C55.8559 40.9412 55.0882 41.7088 55.0882 42.6471V54.5882H43.1471C42.2088 54.5882 41.4412 55.3559 41.4412 56.2941C41.4412 57.2324 42.2088 58 43.1471 58H56.7941C57.7324 58 58.5 57.2324 58.5 56.2941V42.6471C58.5 41.7088 57.7324 40.9412 56.7941 40.9412ZM56.7941 0H43.1471C42.2088 0 41.4412 0.767647 41.4412 1.70588C41.4412 2.64412 42.2088 3.41176 43.1471 3.41176H55.0882V15.3529C55.0882 16.2912 55.8559 17.0588 56.7941 17.0588C57.7324 17.0588 58.5 16.2912 58.5 15.3529V1.70588C58.5 0.767647 57.7324 0 56.7941 0ZM29.5 46.0588C19.93 46.0588 10.3259 40.7024 0.926471 30.1259C0.875294 30.0747 0.858235 29.9894 0.807059 29.9212C0.740288 29.8307 0.683118 29.7335 0.636471 29.6312C0.602353 29.5288 0.585294 29.4265 0.568235 29.3241C0.534118 29.2047 0.517059 29.1024 0.517059 29C0.517059 28.8976 0.534118 28.7953 0.568235 28.6759C0.585294 28.5735 0.602353 28.4712 0.636471 28.3688C0.687647 28.2665 0.738823 28.1641 0.807059 28.0788C0.858235 28.0106 0.875294 27.9253 0.926471 27.8741C19.7082 6.73823 39.2918 6.73823 58.0735 27.8741C58.1247 27.9253 58.1418 28.0106 58.1929 28.0788C58.2612 28.1641 58.3123 28.2665 58.3635 28.3688C58.3976 28.4712 58.4147 28.5735 58.4318 28.6759C58.4659 28.7953 58.4829 28.8976 58.4829 29C58.4829 29.1024 58.4659 29.2047 58.4318 29.3241C58.4147 29.4265 58.3976 29.5288 58.3635 29.6312C58.3123 29.7335 58.2612 29.8359 58.1929 29.9212C58.1418 29.9894 58.1247 30.0747 58.0735 30.1259C48.6741 40.7024 39.07 46.0588 29.5 46.0588ZM39.7353 29C39.7353 23.3535 35.1465 18.7647 29.5 18.7647C23.8535 18.7647 19.2647 23.3535 19.2647 29C19.2647 34.6465 23.8535 39.2353 29.5 39.2353C35.1465 39.2353 39.7353 34.6465 39.7353 29ZM36.3235 29C36.3235 32.77 33.27 35.8235 29.5 35.8235C25.73 35.8235 22.6765 32.77 22.6765 29C22.6765 25.23 25.73 22.1765 29.5 22.1765C33.27 22.1765 36.3235 25.23 36.3235 29ZM32.9118 29C32.9118 27.1235 31.3765 25.5882 29.5 25.5882C27.6235 25.5882 26.0882 27.1235 26.0882 29C26.0882 30.8765 27.6235 32.4118 29.5 32.4118C31.3765 32.4118 32.9118 30.8765 32.9118 29Z" fill="#3AA735"/>
</svg>
