<svg width="52" height="52" viewBox="0 0 52 52" fill="none" xmlns="http://www.w3.org/2000/svg">
<rect width="52" height="52" rx="26" fill="white"/>
<path d="M24.3075 13.1665C21.353 13.1691 18.5202 14.3434 16.4305 16.4319C14.3408 18.5204 13.1648 21.3526 13.1605 24.307C13.1648 27.2615 14.3408 30.0936 16.4305 32.1821C18.5202 34.2706 21.353 35.445 24.3075 35.4475C27.0692 35.4475 29.5948 34.4321 31.5448 32.7602L32.5149 33.7304L31.9102 34.3383C31.8305 34.4179 31.7673 34.5124 31.7242 34.6165C31.681 34.7205 31.6588 34.832 31.6588 34.9447C31.6588 35.0573 31.681 35.1688 31.7242 35.2729C31.7673 35.3769 31.8305 35.4714 31.9102 35.551L34.4811 38.1219C34.7339 38.384 35.0383 38.5909 35.375 38.7294C35.7117 38.868 36.0735 38.9353 36.4376 38.9271C37.0855 38.8932 37.6971 38.6174 38.1515 38.1542C38.6132 37.7015 38.8889 37.0925 38.9244 36.4468C38.9335 36.0824 38.8669 35.7202 38.7288 35.3829C38.5908 35.0455 38.3843 34.7405 38.1224 34.4871L35.5483 31.913C35.4678 31.8322 35.372 31.7682 35.2665 31.7249C35.161 31.6816 35.0479 31.6598 34.9338 31.6607C34.7091 31.6631 34.4942 31.7537 34.3356 31.913L33.7276 32.5209L32.7575 31.5508C34.4943 29.5372 35.4493 26.9662 35.448 24.307C35.448 18.1628 30.4518 13.1665 24.3075 13.1665ZM26.015 20.0157H29.4428C29.5564 20.0149 29.6691 20.0366 29.7742 20.0797C29.8794 20.1228 29.9749 20.1864 30.0553 20.2667C30.1356 20.3471 30.1992 20.4426 30.2423 20.5477C30.2854 20.6529 30.3071 20.7655 30.3062 20.8792V24.307C30.3062 24.5343 30.216 24.7523 30.0552 24.913C29.8945 25.0737 29.6766 25.164 29.4493 25.164C29.222 25.164 29.004 25.0737 28.8433 24.913C28.6826 24.7523 28.5923 24.5343 28.5923 24.307V22.9456L24.9058 26.6224C24.7453 26.7814 24.5285 26.8706 24.3027 26.8706C24.0768 26.8706 23.86 26.7814 23.6995 26.6224L22.5936 25.5132L19.7705 28.3364C18.9652 29.1998 17.7008 27.9354 18.5578 27.1269L21.9856 23.6991C22.1462 23.5391 22.3637 23.4493 22.5903 23.4493C22.817 23.4493 23.0345 23.5391 23.1951 23.6991L24.301 24.8115L27.3829 21.7297H26.015C25.7877 21.7297 25.5697 21.6394 25.409 21.4787C25.2483 21.318 25.158 21.1 25.158 20.8727C25.158 20.6454 25.2483 20.4274 25.409 20.2667C25.5697 20.106 25.7877 20.0157 26.015 20.0157Z" fill="#1769AB"/>
</svg>
