<svg width="52" height="53" viewBox="0 0 52 53" fill="none" xmlns="http://www.w3.org/2000/svg">
<rect y="0.799805" width="52" height="52" rx="26" fill="white"/>
<path d="M24.3074 13.9663C21.3529 13.9689 18.5201 15.1432 16.4304 17.2317C14.3407 19.3202 13.1647 22.1524 13.1604 25.1068C13.1647 28.0613 14.3407 30.8934 16.4304 32.9819C18.5201 35.0704 21.3529 36.2448 24.3074 36.2473C27.0691 36.2473 29.5947 35.2319 31.5447 33.56L32.5148 34.5302L31.9101 35.1381C31.8304 35.2177 31.7672 35.3122 31.7241 35.4163C31.6809 35.5203 31.6587 35.6318 31.6587 35.7445C31.6587 35.8571 31.6809 35.9686 31.7241 36.0727C31.7672 36.1767 31.8304 36.2712 31.9101 36.3508L34.481 38.9217C34.7338 39.1838 35.0381 39.3907 35.3749 39.5292C35.7116 39.6678 36.0734 39.7351 36.4374 39.7269C37.0854 39.693 37.697 39.4172 38.1514 38.954C38.6131 38.5013 38.8888 37.8923 38.9243 37.2466C38.9333 36.8822 38.8668 36.52 38.7287 36.1827C38.5907 35.8453 38.3842 35.5403 38.1223 35.2869L35.5481 32.7128C35.4677 32.632 35.3719 32.568 35.2664 32.5247C35.1609 32.4814 35.0478 32.4596 34.9337 32.4605C34.7089 32.4629 34.4941 32.5535 34.3355 32.7128L33.7275 33.3207L32.7574 32.3506C34.4942 30.337 35.4492 27.766 35.4479 25.1068C35.4479 18.9626 30.4516 13.9663 24.3074 13.9663ZM26.0148 20.8155H29.4427C29.5563 20.8147 29.669 20.8364 29.7741 20.8795C29.8793 20.9226 29.9748 20.9862 30.0551 21.0665C30.1355 21.1469 30.1991 21.2424 30.2421 21.3475C30.2852 21.4527 30.307 21.5653 30.3061 21.679V25.1068C30.3061 25.3341 30.2158 25.5521 30.0551 25.7128C29.8944 25.8735 29.6764 25.9638 29.4492 25.9638C29.2219 25.9638 29.0039 25.8735 28.8432 25.7128C28.6825 25.5521 28.5922 25.3341 28.5922 25.1068V23.7454L24.9056 27.4222C24.7452 27.5812 24.5284 27.6704 24.3025 27.6704C24.0766 27.6704 23.8599 27.5812 23.6994 27.4222L22.5935 26.313L19.7703 29.1362C18.9651 29.9996 17.7007 28.7352 18.5576 27.9267L21.9855 24.4989C22.1461 24.3389 22.3635 24.2491 22.5902 24.2491C22.8169 24.2491 23.0343 24.3389 23.1949 24.4989L24.3009 25.6113L27.3827 22.5295H26.0148C25.7876 22.5295 25.5696 22.4392 25.4089 22.2785C25.2482 22.1178 25.1579 21.8998 25.1579 21.6725C25.1579 21.4452 25.2482 21.2273 25.4089 21.0665C25.5696 20.9058 25.7876 20.8155 26.0148 20.8155Z" fill="#082136"/>
</svg>
