<svg width="20" height="20" viewBox="0 0 20 20" fill="none" xmlns="http://www.w3.org/2000/svg">
<path fill-rule="evenodd" clip-rule="evenodd" d="M2.77734 10.0001C2.77734 9.53982 3.15044 9.16672 3.61068 9.16672L14.3769 9.16672L11.3548 6.1449C11.0293 5.81948 11.0293 5.29184 11.3547 4.96638C11.6801 4.64093 12.2078 4.6409 12.5332 4.96633L16.9781 9.41077C17.1344 9.56705 17.2222 9.77903 17.2222 10.0001C17.2222 10.2211 17.1344 10.4331 16.9781 10.5893L12.5332 15.0338C12.2078 15.3592 11.6801 15.3592 11.3547 15.0337C11.0293 14.7083 11.0293 14.1806 11.3548 13.8552L14.3769 10.8334L3.61068 10.8334C3.15044 10.8334 2.77734 10.4603 2.77734 10.0001Z" fill="#3AA735"/>
</svg>
