<svg width="52" height="52" viewBox="0 0 52 52" fill="none" xmlns="http://www.w3.org/2000/svg">
<rect width="52" height="52" rx="26" fill="white"/>
<path d="M33.4375 26.875C29.8131 26.875 26.875 29.8131 26.875 33.4375C26.875 37.0618 29.8131 40 33.4375 40C37.0619 40 40 37.0618 40 33.4375C40 29.8131 37.0619 26.875 33.4375 26.875ZM35.8984 34.2578H33.4375C32.9841 34.2578 32.6172 33.8909 32.6172 33.4375V30.9766C32.6172 30.5231 32.9841 30.1562 33.4375 30.1562C33.8909 30.1562 34.2578 30.5231 34.2578 30.9766V32.6172H35.8984C36.3519 32.6172 36.7188 32.9841 36.7188 33.4375C36.7188 33.8909 36.3519 34.2578 35.8984 34.2578Z" fill="#1769AB"/>
<path d="M31.7969 16.1016C31.7969 14.7445 30.693 13.6406 29.3359 13.6406H27.6953V12.8203C27.6953 12.3669 27.3284 12 26.875 12C26.4216 12 26.0547 12.3669 26.0547 12.8203V13.6406H22.7734V12.8203C22.7734 12.3669 22.4065 12 21.9531 12C21.4997 12 21.1328 12.3669 21.1328 12.8203V13.6406H17.8516V12.8203C17.8516 12.3669 17.4847 12 17.0312 12C16.5778 12 16.2109 12.3669 16.2109 12.8203V13.6406H14.4609C13.1039 13.6406 12 14.7445 12 16.1016V16.9219H31.7969V16.1016Z" fill="#1769AB"/>
<path d="M31.7969 25.4002V18.5625H12V29.3359C12 30.693 13.1039 31.7969 14.4609 31.7969H25.4002C26.0544 28.5877 28.5877 26.0544 31.7969 25.4002ZM26.0547 20.3125H27.6953C28.1487 20.3125 28.5156 20.6794 28.5156 21.1328C28.5156 21.5862 28.1487 21.9531 27.6953 21.9531H26.0547C25.6013 21.9531 25.2344 21.5862 25.2344 21.1328C25.2344 20.6794 25.6013 20.3125 26.0547 20.3125ZM17.8516 28.5156H16.2109C15.7575 28.5156 15.3906 28.1487 15.3906 27.6953C15.3906 27.2419 15.7575 26.875 16.2109 26.875H17.8516C18.305 26.875 18.6719 27.2419 18.6719 27.6953C18.6719 28.1487 18.305 28.5156 17.8516 28.5156ZM17.8516 25.2344H16.2109C15.7575 25.2344 15.3906 24.8675 15.3906 24.4141C15.3906 23.9606 15.7575 23.5938 16.2109 23.5938H17.8516C18.305 23.5938 18.6719 23.9606 18.6719 24.4141C18.6719 24.8675 18.305 25.2344 17.8516 25.2344ZM17.8516 21.9531H16.2109C15.7575 21.9531 15.3906 21.5862 15.3906 21.1328C15.3906 20.6794 15.7575 20.3125 16.2109 20.3125H17.8516C18.305 20.3125 18.6719 20.6794 18.6719 21.1328C18.6719 21.5862 18.305 21.9531 17.8516 21.9531ZM22.7734 28.5156H21.1328C20.6794 28.5156 20.3125 28.1487 20.3125 27.6953C20.3125 27.2419 20.6794 26.875 21.1328 26.875H22.7734C23.2269 26.875 23.5938 27.2419 23.5938 27.6953C23.5938 28.1487 23.2269 28.5156 22.7734 28.5156ZM22.7734 25.2344H21.1328C20.6794 25.2344 20.3125 24.8675 20.3125 24.4141C20.3125 23.9606 20.6794 23.5938 21.1328 23.5938H22.7734C23.2269 23.5938 23.5938 23.9606 23.5938 24.4141C23.5938 24.8675 23.2269 25.2344 22.7734 25.2344ZM22.7734 21.9531H21.1328C20.6794 21.9531 20.3125 21.5862 20.3125 21.1328C20.3125 20.6794 20.6794 20.3125 21.1328 20.3125H22.7734C23.2269 20.3125 23.5938 20.6794 23.5938 21.1328C23.5938 21.5862 23.2269 21.9531 22.7734 21.9531ZM25.2344 24.4141C25.2344 23.9606 25.6013 23.5938 26.0547 23.5938H27.6953C28.1487 23.5938 28.5156 23.9606 28.5156 24.4141C28.5156 24.8675 28.1487 25.2344 27.6953 25.2344H26.0547C25.6013 25.2344 25.2344 24.8675 25.2344 24.4141Z" fill="#1769AB"/>
</svg>
