<svg width="52" height="53" viewBox="0 0 52 53" fill="none" xmlns="http://www.w3.org/2000/svg">
<rect y="0.799805" width="52" height="52" rx="26" fill="white"/>
<path d="M33.4375 27.6748C29.8131 27.6748 26.875 30.6129 26.875 34.2373C26.875 37.8616 29.8131 40.7998 33.4375 40.7998C37.0619 40.7998 40 37.8616 40 34.2373C40 30.6129 37.0619 27.6748 33.4375 27.6748ZM35.8984 35.0576H33.4375C32.9841 35.0576 32.6172 34.6907 32.6172 34.2373V31.7764C32.6172 31.323 32.9841 30.9561 33.4375 30.9561C33.8909 30.9561 34.2578 31.323 34.2578 31.7764V33.417H35.8984C36.3519 33.417 36.7188 33.7839 36.7188 34.2373C36.7188 34.6907 36.3519 35.0576 35.8984 35.0576Z" fill="#082136"/>
<path d="M31.7969 16.9014C31.7969 15.5444 30.693 14.4404 29.3359 14.4404H27.6953V13.6201C27.6953 13.1667 27.3284 12.7998 26.875 12.7998C26.4216 12.7998 26.0547 13.1667 26.0547 13.6201V14.4404H22.7734V13.6201C22.7734 13.1667 22.4065 12.7998 21.9531 12.7998C21.4997 12.7998 21.1328 13.1667 21.1328 13.6201V14.4404H17.8516V13.6201C17.8516 13.1667 17.4847 12.7998 17.0312 12.7998C16.5778 12.7998 16.2109 13.1667 16.2109 13.6201V14.4404H14.4609C13.1039 14.4404 12 15.5444 12 16.9014V17.7217H31.7969V16.9014Z" fill="#082136"/>
<path d="M31.7969 26.2V19.3623H12V30.1357C12 31.4928 13.1039 32.5967 14.4609 32.5967H25.4002C26.0544 29.3875 28.5877 26.8542 31.7969 26.2ZM26.0547 21.1123H27.6953C28.1487 21.1123 28.5156 21.4792 28.5156 21.9326C28.5156 22.386 28.1487 22.7529 27.6953 22.7529H26.0547C25.6013 22.7529 25.2344 22.386 25.2344 21.9326C25.2344 21.4792 25.6013 21.1123 26.0547 21.1123ZM17.8516 29.3154H16.2109C15.7575 29.3154 15.3906 28.9485 15.3906 28.4951C15.3906 28.0417 15.7575 27.6748 16.2109 27.6748H17.8516C18.305 27.6748 18.6719 28.0417 18.6719 28.4951C18.6719 28.9485 18.305 29.3154 17.8516 29.3154ZM17.8516 26.0342H16.2109C15.7575 26.0342 15.3906 25.6673 15.3906 25.2139C15.3906 24.7605 15.7575 24.3936 16.2109 24.3936H17.8516C18.305 24.3936 18.6719 24.7605 18.6719 25.2139C18.6719 25.6673 18.305 26.0342 17.8516 26.0342ZM17.8516 22.7529H16.2109C15.7575 22.7529 15.3906 22.386 15.3906 21.9326C15.3906 21.4792 15.7575 21.1123 16.2109 21.1123H17.8516C18.305 21.1123 18.6719 21.4792 18.6719 21.9326C18.6719 22.386 18.305 22.7529 17.8516 22.7529ZM22.7734 29.3154H21.1328C20.6794 29.3154 20.3125 28.9485 20.3125 28.4951C20.3125 28.0417 20.6794 27.6748 21.1328 27.6748H22.7734C23.2269 27.6748 23.5938 28.0417 23.5938 28.4951C23.5938 28.9485 23.2269 29.3154 22.7734 29.3154ZM22.7734 26.0342H21.1328C20.6794 26.0342 20.3125 25.6673 20.3125 25.2139C20.3125 24.7605 20.6794 24.3936 21.1328 24.3936H22.7734C23.2269 24.3936 23.5938 24.7605 23.5938 25.2139C23.5938 25.6673 23.2269 26.0342 22.7734 26.0342ZM22.7734 22.7529H21.1328C20.6794 22.7529 20.3125 22.386 20.3125 21.9326C20.3125 21.4792 20.6794 21.1123 21.1328 21.1123H22.7734C23.2269 21.1123 23.5938 21.4792 23.5938 21.9326C23.5938 22.386 23.2269 22.7529 22.7734 22.7529ZM25.2344 25.2139C25.2344 24.7605 25.6013 24.3936 26.0547 24.3936H27.6953C28.1487 24.3936 28.5156 24.7605 28.5156 25.2139C28.5156 25.6673 28.1487 26.0342 27.6953 26.0342H26.0547C25.6013 26.0342 25.2344 25.6673 25.2344 25.2139Z" fill="#082136"/>
</svg>
