<svg width="101" height="100" viewBox="0 0 101 100" fill="none" xmlns="http://www.w3.org/2000/svg">
<g clip-path="url(#clip0_2233_19535)">
<path d="M56.3091 21.1622L54.77 22.4146C54.0041 22.0071 53.2041 21.6699 52.3794 21.4071L52.163 19.4143C52.1 18.8325 51.8282 18.2948 51.3997 17.9044C50.9712 17.5141 50.4162 17.2985 49.8411 17.2991H46.177C45.6021 17.2987 45.0473 17.5144 44.6189 17.9047C44.1906 18.2951 43.9189 18.8326 43.8559 19.4143L43.638 21.4071C42.8133 21.6701 42.0133 22.0073 41.2473 22.4146L39.7083 21.1614C39.2595 20.7961 38.6942 20.6122 38.1204 20.6447C37.5467 20.6773 37.005 20.9241 36.5989 21.3379L34.0075 23.9756C33.6007 24.389 33.3581 24.9407 33.3264 25.525C33.2947 26.1092 33.476 26.6848 33.8356 27.1413L35.0661 28.7062C34.6656 29.4858 34.3341 30.3001 34.0755 31.1395L32.1177 31.3622C31.5463 31.4261 31.0183 31.7025 30.6349 32.1384C30.2515 32.5743 30.0398 33.1389 30.0403 33.7239V37.4542C30.0398 38.0394 30.2516 38.6041 30.6352 39.04C31.0187 39.4759 31.547 39.7523 32.1184 39.816L34.0755 40.0386C34.3341 40.8781 34.6656 41.6924 35.0661 42.472L33.8356 44.0361C33.476 44.4928 33.2946 45.0685 33.3263 45.6528C33.3581 46.2372 33.6006 46.7891 34.0075 47.2026L36.5989 49.8403C37.0051 50.2544 37.5471 50.5012 38.1211 50.5335C38.6951 50.5658 39.2606 50.3812 39.7091 50.0152L41.2481 48.7636C42.014 49.1711 42.814 49.5083 43.6387 49.7711L43.8559 51.7639C43.9189 52.3454 44.1904 52.8829 44.6186 53.2732C45.0468 53.6635 45.6014 53.8793 46.1762 53.8791H49.8411C50.4162 53.8797 50.9712 53.6641 51.3997 53.2737C51.8282 52.8834 52.1 52.3457 52.163 51.7639L52.3802 49.7711C53.2048 49.5081 54.0048 49.1709 54.7708 48.7636L56.3098 50.0168C56.7585 50.3824 57.3239 50.5666 57.8977 50.534C58.4715 50.5014 59.0133 50.2544 59.4192 49.8403L62.0106 47.2026C62.4177 46.7892 62.6603 46.2373 62.692 45.6528C62.7238 45.0684 62.5423 44.4927 62.1825 44.0361L60.952 42.472C61.3525 41.6924 61.684 40.878 61.9426 40.0386L63.9005 39.816C64.4719 39.7523 65.0002 39.4759 65.3837 39.04C65.7673 38.6041 65.9791 38.0394 65.9786 37.4542V33.7239C65.9791 33.1388 65.7673 32.574 65.3837 32.1381C65.0002 31.7022 64.4719 31.4259 63.9005 31.3622L61.9426 31.1395C61.684 30.3001 61.3525 29.4858 60.952 28.7062L62.1825 27.1421C62.5421 26.6854 62.7235 26.1097 62.6918 25.5254C62.6601 24.941 62.4175 24.3891 62.0106 23.9756L59.4192 21.3379C59.0133 20.9238 58.4714 20.6768 57.8976 20.6443C57.3237 20.6119 56.7575 20.7963 56.3091 21.1622ZM48.0091 40.3599C47.082 40.3599 46.1757 40.0801 45.4048 39.5558C44.634 39.0315 44.0332 38.2864 43.6784 37.4146C43.3236 36.5427 43.2308 35.5834 43.4116 34.6579C43.5925 33.7324 44.0389 32.8822 44.6945 32.2149C45.3501 31.5477 46.1853 31.0933 47.0946 30.9092C48.0039 30.7251 48.9464 30.8196 49.8029 31.1807C50.6594 31.5418 51.3915 32.1533 51.9066 32.938C52.4216 33.7226 52.6966 34.645 52.6966 35.5887C52.6951 36.8536 52.2008 38.0664 51.322 38.9608C50.4433 39.8553 49.2518 40.3584 48.0091 40.3599ZM87.8528 42.7455H84.7278C84.377 42.7444 84.036 42.8638 83.7602 43.0845C83.4844 43.3051 83.2898 43.6141 83.208 43.9614C83.1262 44.3086 83.1619 44.6738 83.3094 44.9978C83.4569 45.3218 83.7076 45.5856 84.0208 45.7466L62.1841 63.672L55.3638 56.7299C55.1012 56.4622 54.7534 56.2986 54.3829 56.2685C54.0124 56.2385 53.6435 56.344 53.3427 56.5661L31.8403 72.4144L27.3098 67.1446C27.0603 66.8542 26.7155 66.6661 26.3398 66.6153C25.964 66.5646 25.583 66.6546 25.2677 66.8687L10.4239 76.4111C10.2493 76.5252 10.0987 76.6735 9.98095 76.8474C9.86322 77.0213 9.7807 77.2173 9.7382 77.424C9.69571 77.6307 9.69408 77.844 9.73343 78.0514C9.77278 78.2587 9.85231 78.456 9.96738 78.6318C10.0824 78.8075 10.2308 78.9582 10.4036 79.0749C10.5765 79.1917 10.7705 79.2723 10.9743 79.3119C11.1781 79.3515 11.3877 79.3495 11.5907 79.3058C11.7937 79.2621 11.9861 79.1777 12.1567 79.0575L25.8606 70.2889L30.427 75.6008C30.6835 75.8992 31.0402 76.0893 31.4273 76.1338C31.8143 76.1784 32.2037 76.0742 32.5192 75.8418L54.0966 59.9377L60.9669 66.9307C61.2393 67.2087 61.6032 67.3741 61.9884 67.3951C62.3736 67.4161 62.7528 67.2912 63.0528 67.0444L86.3481 47.9223C86.4447 48.2952 86.6715 48.6195 86.9859 48.8347C87.3004 49.0499 87.6811 49.1412 88.0568 49.0915C88.4326 49.0418 88.7777 48.8545 89.0277 48.5647C89.2777 48.2749 89.4155 47.9024 89.4153 47.5167V44.3359C89.4153 43.9141 89.2507 43.5096 88.9577 43.2113C88.6646 42.9131 88.2672 42.7455 87.8528 42.7455ZM56.2762 77.7343H39.7481C39.4929 76.8354 39.2123 75.9442 38.9067 75.0617L36.2622 77.0107C36.545 77.8759 36.8083 78.7546 37.0387 79.6508C37.4669 82.7714 37.7035 85.9162 37.7473 89.0667C37.7793 89.9076 38.0301 90.7247 38.474 91.4346C38.9179 92.1445 39.539 92.7217 40.2739 93.1072C40.523 95.0157 41.4447 96.7671 42.8676 98.0357C44.2904 99.3043 46.1175 100.004 48.0091 100.004C49.9006 100.004 51.7277 99.3043 53.1505 98.0357C54.5734 96.7671 55.4951 95.0157 55.7442 93.1072C56.4789 92.7219 57.1 92.145 57.5439 91.4354C57.9878 90.7258 58.2386 89.9089 58.2708 89.0683C58.315 85.9172 58.5522 82.7719 58.9809 79.6508C59.8132 76.5099 60.9539 73.4622 62.3856 70.5537C61.2964 70.6314 60.2151 70.3166 59.3309 69.6646C58.0954 72.2641 57.0742 74.9632 56.2762 77.7343ZM55.1481 88.9379C55.1319 89.3475 54.9603 89.7348 54.6693 90.0182C54.3783 90.3016 53.9907 90.4591 53.588 90.4576H42.4309C42.028 90.4595 41.6401 90.3022 41.3489 90.0187C41.0577 89.7352 40.886 89.3477 40.87 88.9379C40.8466 88.359 40.8231 87.8087 40.7989 87.2767H55.22C55.1958 87.8095 55.1716 88.359 55.1481 88.9379ZM55.3903 84.0959H40.6294C40.5497 82.8289 40.4651 81.7687 40.3755 80.9151H55.6434C55.5544 81.7681 55.47 82.8284 55.3903 84.0959Z" fill="#0C3555"/>
<path d="M25.1905 56.2735C25.8202 57.3367 26.5874 58.5319 27.3991 59.8002C28.9179 62.1683 30.7022 64.9571 32.3796 68.091L34.9327 66.2087C33.2632 63.1313 31.5147 60.399 30.0163 58.0611C29.2194 56.819 28.4671 55.6453 27.8663 54.6314C27.0176 53.2086 26.2301 51.7488 25.5062 50.2562C23.3007 45.6615 22.228 41.4732 22.228 37.4511C22.228 22.3932 33.5601 10.1431 47.489 10.1431H48.5304C51.5704 10.143 54.5823 10.7349 57.4038 11.887C57.4898 11.008 57.8144 10.1707 58.3413 9.46876L58.6968 8.99164C55.4689 7.65184 52.0163 6.96264 48.5304 6.96229H47.489C31.8366 6.96149 19.103 20.6389 19.103 37.4511C19.103 41.9678 20.2796 46.6142 22.6991 51.6534C23.463 53.2297 24.2943 54.7712 25.1905 56.2735ZM62.0718 13.9434H65.939V28.4319C65.939 28.8537 66.1036 29.2582 66.3966 29.5565C66.6896 29.8548 67.0871 30.0223 67.5015 30.0223H73.7905V36.0738L73.7515 36.034C73.7749 36.5032 73.7905 36.9724 73.7905 37.4495C73.7905 41.4732 72.7202 45.6639 70.5093 50.2522C69.8452 51.6518 69.0718 53.0831 68.1499 54.6338C68.1319 54.6699 68.111 54.7045 68.0874 54.7372L74.189 49.7274C75.8121 46.0917 76.7299 42.1711 76.8921 38.1811C76.908 38.1134 76.9159 38.0439 76.9155 37.9743V14.1183H80.8218C81.1123 14.1192 81.3973 14.0375 81.6447 13.8824C81.8921 13.7273 82.092 13.505 82.2219 13.2405C82.3519 12.976 82.4066 12.6798 82.3801 12.3853C82.3536 12.0908 82.2468 11.8097 82.0718 11.5737L72.6968 -1.14956C72.5517 -1.34565 72.3642 -1.50505 72.1487 -1.61538C71.9333 -1.72572 71.6958 -1.784 71.4546 -1.78572C71.2115 -1.79431 70.97 -1.74143 70.7519 -1.6318C70.5337 -1.52217 70.3457 -1.35921 70.2046 -1.15751L60.8296 11.3908C60.6533 11.6264 60.5452 11.9075 60.5175 12.2023C60.4898 12.4971 60.5435 12.7939 60.6727 13.0593C60.8018 13.3247 61.0012 13.5481 61.2484 13.7043C61.4956 13.8605 61.7808 13.9433 62.0718 13.9434Z" fill="#0C3555"/>
</g>
<defs>
<clipPath id="clip0_2233_19535">
<rect width="100" height="100" fill="white" transform="translate(0.166992)"/>
</clipPath>
</defs>
</svg>
