<svg width="101" height="100" viewBox="0 0 101 100" fill="none" xmlns="http://www.w3.org/2000/svg">
<path d="M51.1042 7.14405C50.3539 7.14332 49.6109 7.29303 48.9174 7.5846C48.224 7.87618 47.5938 8.30392 47.0628 8.84341C45.9903 9.93295 45.387 11.4115 45.3856 12.9538C45.3849 13.7175 45.5319 14.4738 45.8184 15.1796C46.1049 15.8854 46.5251 16.5269 47.0551 17.0674C47.5851 17.6079 48.2146 18.0369 48.9075 18.3298C49.6003 18.6227 50.3431 18.7738 51.0934 18.7746C52.6087 18.776 54.0624 18.1647 55.1349 17.0752C56.2073 15.9857 56.8106 14.5071 56.812 12.9648C56.8135 11.4225 56.2129 9.94278 55.1425 8.85118C54.0721 7.75958 52.6194 7.1455 51.1042 7.14405ZM41.4922 15.8669L22.3652 24.8536C20.6372 25.6231 21.7928 28.3164 23.5587 27.4919L42.6964 18.5162C44.0302 17.9116 43.6846 15.8449 42.1888 15.735C41.9488 15.7186 41.7087 15.766 41.4922 15.8724V15.8669ZM59.5121 18.5107L78.6444 27.4974C80.4102 28.3164 81.5658 25.6286 79.8432 24.8536L60.7109 15.8669C60.4937 15.7621 60.2541 15.7148 60.0143 15.7295C58.5238 15.8394 58.1782 17.9061 59.5121 18.5107ZM13.952 24.5898C13.2021 24.5894 12.4594 24.7394 11.7665 25.0312C11.0735 25.323 10.4438 25.7508 9.91326 26.2903C9.38273 26.8298 8.9618 27.4704 8.67449 28.1754C8.38718 28.8805 8.23912 29.6363 8.23877 30.3996C8.23842 31.1629 8.38577 31.9188 8.67243 32.6241C8.95908 33.3295 9.37942 33.9704 9.90944 34.5104C10.4395 35.0504 11.0688 35.4789 11.7615 35.7713C12.4542 36.0638 13.1967 36.2145 13.9466 36.2148C15.4611 36.2155 16.9139 35.6039 17.9853 34.5143C19.0568 33.4248 19.6591 31.9466 19.6598 30.4051C19.6606 28.8635 19.0596 27.3848 17.9892 26.2942C16.9187 25.2036 15.4665 24.5905 13.952 24.5898ZM88.251 24.5898C86.7358 24.5884 85.282 25.1996 84.2096 26.2892C83.1371 27.3787 82.5338 28.8573 82.5324 30.3996C82.5309 31.9419 83.1315 33.4216 84.2019 34.5132C85.2724 35.6048 86.725 36.2189 88.2402 36.2203C88.9905 36.221 89.7335 36.0713 90.427 35.7798C91.1204 35.4882 91.7506 35.0604 92.2816 34.521C92.8127 33.9815 93.2341 33.3408 93.5219 32.6355C93.8097 31.9303 93.9581 31.1742 93.9588 30.4106C93.9595 29.6469 93.8125 28.8906 93.526 28.1847C93.2395 27.4789 92.8193 26.8374 92.2893 26.2969C91.7593 25.7564 91.1298 25.3275 90.437 25.0346C89.7441 24.7417 89.0013 24.5905 88.251 24.5898ZM48.604 29.2508C48.4042 29.3497 48.388 29.5036 48.2962 29.6795C48.1342 30.0643 47.8912 30.8503 47.254 31.6583C46.606 32.4552 45.6232 33.2138 44.0788 33.8788C42.5398 34.5384 41.314 34.7528 40.2987 34.6813C39.2889 34.6099 38.5437 34.2471 38.1387 34.0932C37.9011 33.9943 37.7823 33.9393 37.6257 33.9943C37.4205 34.0657 36.8967 34.335 35.8167 35.4453C34.7907 36.5061 34.4883 37.0833 34.4289 37.2921C34.3857 37.4625 34.4559 37.6164 34.5369 37.8033C34.6665 38.1386 35.0553 38.9576 35.1417 39.9854C35.2335 41.0132 35.0445 42.2664 34.4181 43.8384C33.7917 45.4104 33.0789 46.4382 32.3121 47.1143C31.5399 47.7904 30.7569 48.0652 30.3573 48.2411C30.1305 48.34 30.0225 48.351 29.9361 48.5159C29.8443 48.6918 29.6499 49.2579 29.6607 50.764C29.6499 52.1765 29.8173 52.7757 29.9307 53.0065C30.0225 53.1769 30.1791 53.2099 30.3573 53.2813C30.7569 53.4572 31.5399 53.7375 32.3067 54.4136C33.0789 55.0897 33.7917 56.1175 34.4127 57.6895C35.0337 59.2285 35.2227 60.4597 35.1417 61.4765C35.0661 62.4934 34.7421 63.1859 34.5477 63.6641C34.4613 63.906 34.3749 64.0434 34.4181 64.2028C34.4536 64.3086 34.4969 64.4115 34.5477 64.5106C36.6645 61.8998 39.3861 59.7836 42.4804 58.4095C40.6637 56.2945 39.6656 53.5788 39.6723 50.7694C39.6723 44.3551 44.8024 39.1334 51.1042 39.1334C57.4006 39.1334 62.5361 44.3551 62.5361 50.764C62.5361 53.6881 61.4831 56.3593 59.7281 58.404C62.8169 59.7836 65.5439 61.8998 67.6607 64.5051C67.7115 64.4079 67.7548 64.3068 67.7903 64.2028C67.8335 64.0379 67.7471 63.906 67.6607 63.6641C67.4663 63.1859 67.1369 62.4934 67.0667 61.4765C66.9857 60.4597 67.1747 59.2285 67.7903 57.684C68.4167 56.1175 69.1295 55.0897 69.8963 54.4136C70.6685 53.7375 71.4515 53.4572 71.8511 53.2868C72.0239 53.2099 72.1859 53.1769 72.2723 53.012C72.3911 52.7757 72.5585 52.1765 72.5423 50.7584C72.5585 49.2579 72.3587 48.6918 72.2723 48.5214C72.1859 48.3455 72.0779 48.34 71.8511 48.2411C71.4515 48.0652 70.6631 47.7904 69.8963 47.1143C69.1295 46.4382 68.4167 45.4104 67.7903 43.8384C67.1585 42.2664 66.9749 41.0132 67.0613 39.9854C67.1531 38.9576 67.5365 38.1386 67.6715 37.8033C67.7525 37.6164 67.8227 37.4625 67.7795 37.2921C67.7147 37.0833 67.4177 36.5061 66.3863 35.4453C65.3063 34.335 64.7879 34.0657 64.5827 33.9943C64.4207 33.9393 64.3019 33.9943 64.0643 34.0932C63.6647 34.2471 62.9141 34.6099 61.9043 34.6813C60.8891 34.7528 59.6687 34.5384 58.1242 33.8788C56.5852 33.2138 55.597 32.4497 54.9544 31.6528C54.3118 30.8503 54.0688 30.0643 53.9122 29.6795C53.8204 29.5036 53.8042 29.3497 53.6044 29.2508C53.3722 29.1409 52.6216 28.9485 51.1042 28.9485C49.5868 28.9485 48.8362 29.1354 48.604 29.2508ZM16.5278 38.5948C16.3001 38.5809 16.0725 38.6227 15.8639 38.7165C15.6553 38.8104 15.4717 38.9536 15.3285 39.1343C15.1853 39.315 15.0867 39.528 15.0407 39.7554C14.9948 39.9828 15.0029 40.218 15.0644 40.4416L17.5754 50.1209C18.0074 52.0721 20.8964 51.3026 20.3348 49.3843L17.8238 39.7051C17.7521 39.4037 17.5877 39.1335 17.3546 38.9338C17.1215 38.7341 16.8318 38.6153 16.5278 38.5948ZM85.6752 38.5948C85.3709 38.6145 85.0809 38.7329 84.8476 38.9328C84.6143 39.1326 84.4502 39.4033 84.3792 39.7051L81.8682 49.3788C81.3066 51.3026 84.1902 52.0721 84.633 50.1209L87.144 40.4416C87.2057 40.2176 87.2138 39.9818 87.1676 39.7539C87.1214 39.5261 87.0222 39.3128 86.8784 39.1319C86.7345 38.9511 86.5502 38.808 86.3409 38.7145C86.1316 38.6211 85.9033 38.58 85.6752 38.5948ZM51.1042 42.0411C49.9596 42.0118 48.8209 42.2161 47.755 42.6417C46.6892 43.0673 45.7178 43.7058 44.8981 44.5194C44.0784 45.3331 43.427 46.3055 42.9822 47.3793C42.5375 48.4532 42.3083 49.6068 42.3083 50.7722C42.3083 51.9376 42.5375 53.0912 42.9822 54.165C43.427 55.2389 44.0784 56.2113 44.8981 57.025C45.7178 57.8386 46.6892 58.4771 47.755 58.9027C48.8209 59.3283 49.9596 59.5326 51.1042 59.5033C53.342 59.4462 55.4692 58.5012 57.032 56.87C58.5949 55.2388 59.4696 53.0506 59.4696 50.7722C59.4696 48.4938 58.5949 46.3055 57.032 44.6744C55.4692 43.0432 53.342 42.0982 51.1042 42.0411ZM21.0962 56.5847C19.9591 56.5825 18.8677 57.0402 18.0621 57.8571C17.2565 58.674 16.8027 59.7832 16.8005 60.9406C16.7984 62.0981 17.248 63.209 18.0506 64.029C18.8532 64.849 19.9429 65.3109 21.08 65.3131C22.2172 65.3153 23.3086 64.8576 24.1142 64.0407C24.9198 63.2238 25.3736 62.1146 25.3758 60.9571C25.3779 59.7997 24.9282 58.6888 24.1257 57.8688C23.3231 57.0488 22.2334 56.5869 21.0962 56.5847ZM81.1068 56.5847C80.5444 56.5851 79.9876 56.6982 79.4682 56.9175C78.9488 57.1369 78.477 57.4583 78.0796 57.8633C77.6822 58.2683 77.3671 58.749 77.1522 59.2779C76.9373 59.8069 76.8269 60.3737 76.8272 60.9461C76.8276 61.5185 76.9387 62.0852 77.1542 62.6139C77.3698 63.1426 77.6855 63.6229 78.0834 64.0274C78.4813 64.4319 78.9536 64.7526 79.4732 64.9713C79.9929 65.1901 80.5498 65.3024 81.1122 65.3021C82.2479 65.3014 83.3368 64.8414 84.1394 64.0235C84.9419 63.2056 85.3924 62.0966 85.3917 60.9406C85.391 59.7846 84.9391 58.6763 84.1356 57.8594C83.332 57.0425 82.2425 56.584 81.1068 56.5847ZM61.7477 87.3099C62.1406 87.2191 62.5115 87.0485 62.838 86.8082C63.1645 86.568 63.44 86.263 63.648 85.9118C63.8559 85.5605 63.992 85.17 64.048 84.7639C64.104 84.3578 64.0789 83.9443 63.9741 83.5483C63.8693 83.1523 63.6869 82.7819 63.438 82.4594C63.1891 82.1369 62.8788 81.8689 62.5256 81.6714C62.1725 81.474 61.7838 81.3512 61.3828 81.3104C60.9819 81.2697 60.577 81.3118 60.1925 81.4342L38.5923 87.0846C36.7455 87.5627 36.0381 84.7376 37.8903 84.2594L38.2467 84.1659V78.3837C38.2899 76.4874 41.0602 76.4874 41.1034 78.3837V83.4184L59.4743 78.6145C60.0197 78.4716 60.6677 78.4001 61.0997 78.4331C61.1429 76.5094 63.9131 76.4874 63.9617 78.3837V79.2521C64.9522 79.8497 65.7473 80.7317 66.2474 81.7874C66.7475 82.8431 66.9303 84.0256 66.7729 85.1866C66.6154 86.3476 66.1248 87.4354 65.3624 88.3138C64.6001 89.1922 63.6 89.8219 62.4875 90.1241L56.6014 91.7346L65.8355 94.2629C67.4555 94.5872 68.3303 94.2959 68.8433 93.8562C69.3563 93.4165 69.6749 92.6635 69.6749 91.5202V78.4001C69.6884 74.4838 68.502 70.6605 66.2807 67.4627C64.0594 64.2648 60.9138 61.8515 57.2818 60.5586C55.4384 61.7676 53.2918 62.4106 51.0988 62.4106C48.9058 62.4106 46.7592 61.7676 44.9158 60.5586C41.2893 61.859 38.1497 64.2745 35.9313 67.4709C33.7129 70.6674 32.5256 74.4866 32.5335 78.4001V91.4982C32.5335 92.6525 32.8521 93.422 33.3651 93.8617C33.8727 94.2959 34.7475 94.5872 36.3729 94.2684L61.7477 87.3099ZM18.3314 67.6491C16.6327 68.2393 15.1588 69.3571 14.1174 70.8451C13.0759 72.3331 12.5195 74.1163 12.5264 75.9432V77.6471C12.5264 79.6533 14.0924 81.3078 16.0904 81.3078H26.0913C28.0893 81.3078 29.6715 79.6753 29.6715 77.6471V75.9432C29.6715 72.1067 27.2631 68.8088 23.8719 67.6436C22.9946 68.0179 22.0529 68.2106 21.1016 68.2106C20.1504 68.2106 19.2087 68.0234 18.3314 67.6491ZM78.3312 67.6491C76.6339 68.2409 75.1616 69.3594 74.1213 70.8471C73.081 72.3349 72.525 74.1171 72.5315 75.9432V77.6471C72.5315 79.6533 74.1083 81.3078 76.1117 81.3078H86.1072C88.1052 81.3078 89.6766 79.6533 89.6766 77.6471V75.9432C89.6766 72.1012 87.2682 68.8088 83.877 67.6436C83 68.0191 82.0582 68.2125 81.1068 68.2125C80.1554 68.2125 79.2135 68.0191 78.3366 67.6436L78.3312 67.6491ZM56.8228 69.6718H61.0997C62.9627 69.7157 62.9627 72.5354 61.0997 72.5849H56.8228C54.9544 72.5354 54.9544 69.7157 56.8228 69.6718Z" fill="#0C3555"/>
</svg>
