<svg width="20" height="20" viewBox="0 0 20 20" fill="none" xmlns="http://www.w3.org/2000/svg">
<path fill-rule="evenodd" clip-rule="evenodd" d="M8.34416 3.6922C9.23548 2.72337 10.7645 2.72337 11.6558 3.6922L15.5097 7.88122C16.1466 8.5734 16.5 9.47962 16.5 10.4202V13.7501C16.5 15.2689 15.2688 16.5001 13.75 16.5001H12C11.1716 16.5001 10.5 15.8285 10.5 15.0001V13.0001H9.5V15.0001C9.5 15.8285 8.82843 16.5001 8 16.5001H6.25C4.73122 16.5001 3.5 15.2689 3.5 13.7501V10.4202C3.5 9.47962 3.85345 8.5734 4.49026 7.88122L8.34416 3.6922ZM10.5519 4.70778C10.2548 4.38484 9.74516 4.38484 9.44805 4.70778L5.59416 8.8968C5.21207 9.31211 5 9.85584 5 10.4202V13.7501C5 14.4405 5.55964 15.0001 6.25 15.0001H8V13.0001C8 12.1717 8.67157 11.5001 9.5 11.5001H10.5C11.3284 11.5001 12 12.1717 12 13.0001V15.0001H13.75C14.4404 15.0001 15 14.4405 15 13.7501V10.4202C15 9.85584 14.7879 9.31211 14.4058 8.8968L10.5519 4.70778Z" fill="white"/>
</svg>
