<svg width="16" height="11" viewBox="0 0 16 11" fill="none" xmlns="http://www.w3.org/2000/svg">
<path fill-rule="evenodd" clip-rule="evenodd" d="M0.777298 5.61627C0.777298 5.15603 1.15039 4.78293 1.61063 4.78293L12.3769 4.78293L9.35474 1.76111C9.02929 1.43569 9.02926 0.908049 9.35468 0.582596C9.6801 0.257142 10.2077 0.257115 10.5332 0.582537L14.9781 5.02698C15.1344 5.18326 15.2222 5.39524 15.2222 5.61627C15.2222 5.83729 15.1344 6.04927 14.9781 6.20555L10.5332 10.65C10.2077 10.9754 9.6801 10.9754 9.35468 10.6499C9.02926 10.3245 9.02929 9.79685 9.35474 9.47142L12.3769 6.4496L1.61063 6.4496C1.15039 6.4496 0.777298 6.0765 0.777298 5.61627Z" fill="#3AA735"/>
</svg>
