<svg width="12" height="12" viewBox="0 0 12 12" fill="none" xmlns="http://www.w3.org/2000/svg">
<path d="M10.4108 11.5891C10.7363 11.9145 11.2639 11.9145 11.5893 11.5891C11.9148 11.2637 11.9148 10.736 11.5893 10.4106L7.17859 5.99984L11.5893 1.58909C11.9148 1.26366 11.9148 0.736019 11.5893 0.410582C11.2639 0.0851451 10.7363 0.0851451 10.4108 0.410582L6.00008 4.82133L1.58934 0.410582C1.2639 0.0851447 0.736263 0.0851447 0.410826 0.410582C0.0853888 0.736018 0.0853887 1.26366 0.410826 1.58909L4.82157 5.99984L0.410826 10.4106C0.0853894 10.736 0.0853894 11.2637 0.410826 11.5891C0.736263 11.9145 1.2639 11.9145 1.58934 11.5891L6.00008 7.17835L10.4108 11.5891Z" fill="#3AA735"/>
</svg>
