<svg width="101" height="100" viewBox="0 0 101 100" fill="none" xmlns="http://www.w3.org/2000/svg">
<path fill-rule="evenodd" clip-rule="evenodd" d="M43.9585 40.1504C43.9585 42.6465 45.3374 44.9102 47.5562 46.0586C47.7692 46.1679 47.9434 46.3401 48.0552 46.5519C48.167 46.7636 48.211 47.0046 48.1811 47.2422L46.8823 57.7461H54.3237L53.0249 47.2422C52.9644 46.7559 53.2124 46.2832 53.6499 46.0586C55.8687 44.9102 57.2476 42.6484 57.2476 40.1504C57.2476 36.4883 54.2671 33.5078 50.603 33.5078C46.939 33.5078 43.9585 36.4883 43.9585 40.1504ZM22.1538 58.5156L16.064 62.0332C15.5034 62.3555 15.312 63.0723 15.6362 63.6328C15.853 64.0098 16.2476 64.2188 16.6519 64.2188C16.8511 64.2188 17.0522 64.168 17.2358 64.0625L23.3257 60.5469C23.8862 60.2227 24.0796 59.5059 23.7554 58.9453C23.4312 58.3848 22.7163 58.1934 22.1538 58.5156ZM18.4312 42.2734H11.3979C10.7515 42.2734 10.2261 42.7969 10.2261 43.4453C10.2261 44.0918 10.7515 44.6172 11.3979 44.6172H18.4312C19.0776 44.6172 19.603 44.0918 19.603 43.4453C19.603 42.7969 19.0776 42.2734 18.4312 42.2734ZM23.3257 26.3438L17.2378 22.8281C16.6753 22.5039 15.9604 22.6953 15.6362 23.2559C15.312 23.8164 15.5034 24.5332 16.0659 24.8574L22.1538 28.373C22.3394 28.4805 22.5405 28.5312 22.7397 28.5312C23.144 28.5312 23.5386 28.3203 23.7554 27.9453C24.0796 27.3848 23.8862 26.668 23.3257 26.3438ZM35.5308 14.9961L32.0151 8.90625C31.6929 8.3457 30.9761 8.1543 30.4155 8.47852C30.2822 8.55521 30.1652 8.65746 30.0714 8.77941C29.9776 8.90136 29.9088 9.04061 29.8689 9.18919C29.829 9.33778 29.8188 9.49277 29.8388 9.64531C29.8589 9.79784 29.9089 9.94492 29.9858 10.0781L33.5015 16.168C33.7183 16.5449 34.1128 16.7539 34.5171 16.7539C34.7163 16.7539 34.9175 16.7031 35.103 16.5977C35.2363 16.5206 35.3531 16.4181 35.4467 16.2959C35.5403 16.1737 35.609 16.0342 35.6487 15.8855C35.6884 15.7368 35.6985 15.5817 35.6782 15.4291C35.658 15.2765 35.6079 15.1293 35.5308 14.9961ZM51.7749 11.2715V4.24023C51.7749 3.59375 51.2495 3.06836 50.603 3.06836C49.9565 3.06836 49.4312 3.59375 49.4312 4.24023V11.2715C49.4312 11.9199 49.9565 12.4434 50.603 12.4434C51.2495 12.4434 51.7749 11.9199 51.7749 11.2715ZM67.7046 16.168L71.2202 10.0781C71.2972 9.94492 71.3472 9.79784 71.3672 9.64531C71.3873 9.49277 71.3771 9.33778 71.3372 9.18919C71.2973 9.04061 71.2284 8.90136 71.1346 8.77941C71.0408 8.65746 70.9239 8.55521 70.7905 8.47852C70.23 8.1543 69.5132 8.3457 69.1909 8.90625L65.6753 14.9961C65.5982 15.1293 65.5481 15.2765 65.5278 15.4291C65.5076 15.5817 65.5176 15.7368 65.5573 15.8855C65.5971 16.0342 65.6657 16.1737 65.7593 16.2959C65.853 16.4181 65.9697 16.5206 66.103 16.5977C66.2886 16.7031 66.4897 16.7539 66.689 16.7539C67.0933 16.7539 67.4878 16.5449 67.7046 16.168ZM79.0522 28.373L85.1401 24.8574C85.2737 24.7806 85.3907 24.6782 85.4846 24.5561C85.5785 24.434 85.6474 24.2946 85.6873 24.1458C85.7272 23.997 85.7374 23.8418 85.7172 23.6891C85.6971 23.5364 85.647 23.3892 85.5698 23.2559C85.2476 22.6973 84.5308 22.5039 83.9683 22.8281L77.8804 26.3438C77.3198 26.668 77.1265 27.3848 77.4507 27.9453C77.6675 28.3203 78.062 28.5312 78.4663 28.5312C78.6655 28.5312 78.8667 28.4805 79.0522 28.373ZM82.7749 44.6172H89.8081C90.4546 44.6172 90.98 44.0918 90.98 43.4453C90.98 42.7969 90.4546 42.2734 89.8081 42.2734H82.7749C82.1284 42.2734 81.603 42.7969 81.603 43.4453C81.603 44.0918 82.1284 44.6172 82.7749 44.6172ZM77.8804 60.5469L83.9683 64.0625C84.1538 64.168 84.355 64.2188 84.5542 64.2188C84.9585 64.2188 85.353 64.0098 85.5698 63.6328C85.6471 63.4997 85.6972 63.3526 85.7174 63.2C85.7376 63.0474 85.7275 62.8923 85.6876 62.7437C85.6476 62.595 85.5787 62.4557 85.4848 62.3338C85.3908 62.2119 85.2737 62.1097 85.1401 62.0332L79.0522 58.5156C78.7828 58.3606 78.4629 58.3187 78.1626 58.3993C77.8624 58.4799 77.6063 58.6762 77.4507 58.9453C77.1245 59.5059 77.3198 60.2227 77.8804 60.5469ZM41.3667 82.2852H59.8393V78.1406H41.3667V82.2852ZM41.3667 88.7734H59.8393V84.6289H41.3667V88.7734ZM58.2436 91.1172H43.0503L45.394 93.4316C46.2749 94.3008 48.5815 94.8887 51.0054 94.8652C53.2534 94.8398 55.1597 94.2969 55.9819 93.4492L58.2436 91.1172ZM59.5913 40.1504C59.5913 43.248 58.0229 46.0801 55.4448 47.7246L56.812 58.7754C56.853 59.1074 56.7495 59.4434 56.5269 59.6953C56.3042 59.9473 55.9858 60.0898 55.6499 60.0898H45.5561C45.2202 60.0898 44.9019 59.9473 44.6792 59.6953C44.4565 59.4434 44.353 59.1074 44.394 58.7754L45.7612 47.7246C43.1831 46.0801 41.6147 43.248 41.6147 40.1504C41.6147 35.1953 45.6479 31.1641 50.603 31.1641C55.5601 31.1641 59.5913 35.1953 59.5913 40.1504ZM66.8745 64.4004C63.8491 67.9297 60.98 71.2773 60.0269 75.7969H41.1792C40.2261 71.2773 37.3569 67.9297 34.3315 64.4004C29.8491 59.1719 25.2144 53.7637 25.4546 43.4727C25.4546 43.4629 25.4565 43.4531 25.4565 43.4453C25.4565 29.5781 36.7358 18.2969 50.603 18.2969C64.4702 18.2969 75.7495 29.5781 75.7495 43.4453C75.7495 43.4531 75.7515 43.4629 75.7515 43.4727C75.9917 53.7637 71.3569 59.1719 66.8745 64.4004Z" fill="#0C3555"/>
</svg>
