<svg width="52" height="52" viewBox="0 0 52 52" fill="none" xmlns="http://www.w3.org/2000/svg">
<rect width="52" height="52" rx="26" fill="white"/>
<g clip-path="url(#clip0_4001_16199)">
<path d="M30.0305 24.0607C30.5722 25.5363 31.7316 26.93 33.0749 26.93C34.4194 26.93 35.5801 25.5325 36.1211 24.0551C36.3299 23.9932 36.5492 23.5969 36.6388 23.0911C36.7358 22.5407 36.6438 22.0607 36.4335 21.9823C36.4238 21.8038 36.407 21.623 36.3821 21.4423C36.2978 19.8868 35.8225 19.1915 35.1197 18.8811C34.6223 18.4816 33.9575 18.2324 33.0749 18.2324C32.1945 18.2324 31.5316 18.4754 31.0363 18.8661C30.2629 19.1906 29.7565 19.9643 29.7275 21.7994C29.7232 21.8579 29.7191 21.9158 29.716 21.9739C29.4864 22.0187 29.3822 22.5171 29.4833 23.0911C29.577 23.6209 29.8131 24.0296 30.0305 24.0607Z" fill="#1769AB"/>
<path d="M35.2912 27.002L33.8458 30.1001L33.4843 28.9597C33.5487 28.8987 33.591 28.8116 33.6066 28.7102L33.8813 28.0544C33.8813 27.864 33.7145 27.7097 33.5083 27.7097H32.6142C32.4086 27.7097 32.2415 27.8643 32.2415 28.0544L32.5162 28.7102C32.5308 28.8368 32.5828 28.9286 32.6612 28.9861L32.2885 30.1247L30.8313 27.002C29.4998 28.036 28.3759 28.0139 27.5602 28.2457C27.9095 28.4006 28.2281 28.6262 28.4969 28.9901C29.0432 29.7299 29.2762 30.913 29.2762 32.9454C29.2762 33.1532 29.2379 33.352 29.1614 33.5405C30.3582 33.7716 31.7534 33.8855 33.0479 33.8855C36.2086 33.8855 39.9989 33.207 39.9989 31.7974C39.9983 26.6467 38.1093 29.1908 35.2912 27.002Z" fill="#1769AB"/>
<path d="M16.6886 23.6608C17.3384 25.4312 18.7296 27.104 20.3417 27.104C21.9557 27.104 23.3481 25.4269 23.9974 23.654C24.2478 23.5796 24.511 23.1039 24.6183 22.497C24.7347 21.8366 24.6245 21.2604 24.3719 21.1665C24.3601 20.9521 24.3402 20.7353 24.3103 20.5185C24.2089 18.6519 23.6384 17.8175 22.7953 17.4449C22.1986 16.9655 21.4004 16.6665 20.3414 16.6665C19.2849 16.6665 18.4895 16.958 17.8953 17.4268C16.9673 17.8163 16.3594 18.7446 16.3249 20.9468C16.3196 21.0168 16.3146 21.0865 16.3109 21.1562C16.0356 21.2097 15.9102 21.8079 16.0318 22.497C16.1441 23.1329 16.4272 23.6235 16.6886 23.6608Z" fill="#1769AB"/>
<path d="M23.0007 27.1914L21.2664 30.9093L20.8324 29.5408C20.9099 29.4677 20.9606 29.3631 20.979 29.2415L21.3084 28.4544C21.3084 28.2258 21.1084 28.0404 20.861 28.0404H19.7881C19.5411 28.0404 19.3407 28.2261 19.3407 28.4544L19.6705 29.2415C19.6879 29.393 19.7501 29.5038 19.8444 29.5725L19.397 30.9385L17.6487 27.1914C14.2671 29.8177 11.9999 26.7646 11.9999 32.946C12.0002 34.6377 16.5154 35.4515 20.3082 35.4515C24.1011 35.4515 28.6496 34.6377 28.6496 32.946C28.6496 26.7646 26.3823 29.8177 23.0007 27.1914Z" fill="#1769AB"/>
</g>
<defs>
<clipPath id="clip0_4001_16199">
<rect width="28" height="28" fill="white" transform="translate(12 12)"/>
</clipPath>
</defs>
</svg>
