<svg width="52" height="53" viewBox="0 0 52 53" fill="none" xmlns="http://www.w3.org/2000/svg">
<rect y="0.799805" width="52" height="52" rx="26" fill="white"/>
<path d="M30.0307 24.8606C30.5723 26.3361 31.7317 27.7298 33.075 27.7298C34.4196 27.7298 35.5803 26.3323 36.1212 24.855C36.33 24.793 36.5493 24.3967 36.6389 23.8909C36.736 23.3406 36.6439 22.8605 36.4336 22.7821C36.4239 22.6036 36.4071 22.4228 36.3822 22.2421C36.2979 20.6866 35.8226 19.9913 35.1198 19.6809C34.6224 19.2814 33.9576 19.0322 33.075 19.0322C32.1946 19.0322 31.5317 19.2752 31.0364 19.6659C30.2631 19.9904 29.7566 20.7641 29.7277 22.5992C29.7233 22.6577 29.7193 22.7156 29.7162 22.7737C29.4866 22.8185 29.3823 23.3169 29.4835 23.8909C29.5771 24.4207 29.8132 24.8294 30.0307 24.8606Z" fill="#082136"/>
<path d="M35.2913 27.8018L33.8459 30.8999L33.4844 29.7595C33.5488 29.6985 33.5912 29.6114 33.6067 29.51L33.8814 28.8542C33.8814 28.6638 33.7147 28.5095 33.5084 28.5095H32.6143C32.4087 28.5095 32.2416 28.6641 32.2416 28.8542L32.5163 29.51C32.5309 29.6366 32.5829 29.7284 32.6613 29.7859L32.2886 30.9245L30.8314 27.8018C29.5 28.8358 28.376 28.8137 27.5603 29.0455C27.9097 29.2004 28.2282 29.426 28.497 29.79C29.0433 30.5297 29.2763 31.7128 29.2763 33.7452C29.2763 33.953 29.238 34.1518 29.1615 34.3403C30.3583 34.5715 31.7535 34.6853 33.048 34.6853C36.2087 34.6853 39.999 34.0068 39.999 32.5973C39.9984 27.4465 38.1095 29.9906 35.2913 27.8018Z" fill="#082136"/>
<path d="M16.6888 24.4606C17.3387 26.231 18.7299 27.9038 20.342 27.9038C21.9559 27.9038 23.3484 26.2267 23.9976 24.4538C24.2481 24.3794 24.5112 23.9038 24.6186 23.2968C24.7349 22.6364 24.6248 22.0602 24.3722 21.9663C24.3604 21.7519 24.3404 21.5351 24.3106 21.3183C24.2092 19.4517 23.6386 18.6174 22.7956 18.2447C22.1989 17.7653 21.4006 17.4663 20.3417 17.4663C19.2852 17.4663 18.4897 17.7578 17.8955 18.2266C16.9675 18.6161 16.3597 19.5444 16.3251 21.7466C16.3198 21.8166 16.3149 21.8863 16.3111 21.956C16.0358 22.0095 15.9104 22.6077 16.0321 23.2968C16.1444 23.9327 16.4275 24.4233 16.6888 24.4606Z" fill="#082136"/>
<path d="M23.0009 27.9912L21.2665 31.7091L20.8325 30.3406C20.91 30.2675 20.9607 30.163 20.9791 30.0413L21.3085 29.2542C21.3085 29.0256 21.1085 28.8402 20.8612 28.8402H19.7882C19.5412 28.8402 19.3409 29.0259 19.3409 29.2542L19.6706 30.0413C19.688 30.1928 19.7503 30.3036 19.8445 30.3723L19.3972 31.7383L17.6488 27.9912C14.2672 30.6175 12 27.5644 12 33.7458C12.0003 35.4375 16.5155 36.2514 20.3084 36.2514C24.1012 36.2514 28.6497 35.4375 28.6497 33.7458C28.6497 27.5644 26.3824 30.6175 23.0009 27.9912Z" fill="#082136"/>
</svg>
