<svg width="24" height="24" viewBox="0 0 24 24" fill="none" xmlns="http://www.w3.org/2000/svg">
<path fill-rule="evenodd" clip-rule="evenodd" d="M15.0975 16.5112C13.8667 17.4456 12.3318 18.0002 10.6673 18.0002C6.61723 18.0002 3.33398 14.7169 3.33398 10.6668C3.33398 6.61674 6.61723 3.3335 10.6673 3.3335C14.7174 3.3335 18.0007 6.61674 18.0007 10.6668C18.0007 12.3313 17.4461 13.8663 16.5117 15.097L20.3744 18.9597C20.7649 19.3502 20.7649 19.9834 20.3744 20.3739C19.9839 20.7645 19.3507 20.7645 18.9602 20.3739L15.0975 16.5112ZM16.0007 10.6668C16.0007 13.6123 13.6128 16.0002 10.6673 16.0002C7.7218 16.0002 5.33398 13.6123 5.33398 10.6668C5.33398 7.72131 7.7218 5.3335 10.6673 5.3335C13.6128 5.3335 16.0007 7.72131 16.0007 10.6668Z" fill="#082136"/>
</svg>
