<svg width="16" height="12" viewBox="0 0 16 12" fill="none" xmlns="http://www.w3.org/2000/svg">
<path fill-rule="evenodd" clip-rule="evenodd" d="M0.777344 6.11578C0.777344 5.65554 1.15044 5.28244 1.61068 5.28244L12.3769 5.28244L9.35478 2.26062C9.02933 1.9352 9.02931 1.40756 9.35473 1.08211C9.68015 0.756654 10.2078 0.756627 10.5332 1.08205L14.9781 5.52649C15.1344 5.68277 15.2222 5.89475 15.2222 6.11578C15.2222 6.33681 15.1344 6.54878 14.9781 6.70506L10.5332 11.1495C10.2078 11.4749 9.68015 11.4749 9.35473 11.1494C9.02931 10.824 9.02933 10.2964 9.35478 9.97094L12.3769 6.94911L1.61068 6.94911C1.15044 6.94911 0.777344 6.57601 0.777344 6.11578Z" fill="white"/>
</svg>
