<svg width="15" height="12" viewBox="0 0 15 12" fill="none" xmlns="http://www.w3.org/2000/svg">
<path fill-rule="evenodd" clip-rule="evenodd" d="M14.5 6.11664C14.5 6.57688 14.1269 6.94998 13.6667 6.94998L2.90087 6.94998L5.923 9.9718C6.24845 10.2972 6.24848 10.8249 5.92306 11.1503C5.59764 11.4758 5.07 11.4758 4.74455 11.1504L0.299659 6.70593C0.14336 6.54965 0.0555513 6.33767 0.0555513 6.11664C0.0555513 5.89562 0.14336 5.68364 0.299659 5.52736L4.74455 1.08291C5.07 0.757494 5.59764 0.757521 5.92306 1.08297C6.24848 1.40843 6.24845 1.93606 5.923 2.26149L2.90087 5.28331L13.6667 5.28331C14.1269 5.28331 14.5 5.65641 14.5 6.11664Z" fill="white"/>
</svg>
