<svg width="52" height="53" viewBox="0 0 52 53" fill="none" xmlns="http://www.w3.org/2000/svg">
<rect y="0.799805" width="52" height="52" rx="26" fill="white"/>
<g clip-path="url(#clip0_4001_7580)">
<path fill-rule="evenodd" clip-rule="evenodd" d="M21.327 36.3981L20.571 35.646C20.1851 35.5082 18.6179 34.8388 16.1255 32.1731L13.7511 29.7987C12.8612 28.9088 13.4282 27.385 14.6764 27.2865C14.3221 26.3494 14.9796 25.3414 15.9758 25.2902C15.8026 24.7626 15.9404 24.1838 16.3342 23.7861C16.594 23.5262 16.9327 23.3844 17.2792 23.3608C16.9681 22.467 17.5981 21.3999 18.6731 21.3999C19.0668 21.3999 19.4369 21.5535 19.7165 21.833L21.4057 23.5222L22.5319 24.6484C23.5162 24.1365 24.8393 24.0578 25.5835 24.8453C26.8829 26.2234 26.5679 27.2905 26.2922 28.2355C26.0678 28.9876 25.8788 29.6412 26.4655 30.4838L26.8553 30.8697L21.327 36.3981ZM24.5912 40.8002C24.2723 40.8002 23.9376 40.6467 23.6698 40.3829L21.8074 38.5204C21.3978 38.1109 21.2088 37.4336 21.6144 37.0281L27.4538 31.1926C27.8515 30.791 28.5288 30.9682 28.9461 31.3855L30.8086 33.248C31.2181 33.6575 31.4071 34.3348 31.0015 34.7403L25.1621 40.5758C25.0204 40.7215 24.8156 40.8002 24.5912 40.8002Z" fill="#082136"/>
<path fill-rule="evenodd" clip-rule="evenodd" d="M17.6887 38.0361C17.2635 38.0361 16.9524 37.6266 17.0627 37.2171L19.5276 28.015C19.5866 27.7906 19.752 27.6173 19.9843 27.5583C20.4608 27.4402 20.9136 27.8536 20.7797 28.3537L18.3148 37.5518C18.24 37.8353 17.9841 38.0361 17.6887 38.0361ZM21.3034 24.55C20.8782 24.55 20.5631 24.1444 20.6734 23.7349L23.4769 13.2807C23.536 13.0523 23.7014 12.8791 23.9337 12.82C24.4101 12.7019 24.863 13.1193 24.7291 13.6154L21.9295 24.0696C21.8507 24.3531 21.5948 24.55 21.3034 24.55ZM34.2973 24.5264C30.0802 24.5264 26.6427 21.8606 23.3982 21.0928L25.3552 13.7847C25.3985 13.6233 25.4103 13.4658 25.3945 13.3161C29.0407 14.1509 32.742 17.234 37.3174 16.6788C37.6403 16.6394 37.8136 17.0489 37.5576 17.2537L33.9115 20.1793L35.7385 23.9909C35.833 24.1917 35.707 24.424 35.4865 24.4515C35.0927 24.4988 34.695 24.5264 34.2973 24.5264Z" fill="#082136"/>
</g>
<defs>
<clipPath id="clip0_4001_7580">
<rect width="28" height="28" fill="white" transform="translate(12 12.7998)"/>
</clipPath>
</defs>
</svg>
