<svg width="52" height="52" viewBox="0 0 52 52" fill="none" xmlns="http://www.w3.org/2000/svg">
<rect width="52" height="52" rx="26" fill="white"/>
<g clip-path="url(#clip0_4001_7996)">
<path fill-rule="evenodd" clip-rule="evenodd" d="M21.3271 35.5982L20.5711 34.8462C20.1852 34.7084 18.6181 34.039 16.1256 31.3732L13.7512 28.9989C12.8613 28.109 13.4284 26.5852 14.6766 26.4867C14.3222 25.5496 14.9798 24.5416 15.976 24.4904C15.8027 23.9628 15.9405 23.3839 16.3343 22.9863C16.5942 22.7264 16.9328 22.5846 17.2793 22.561C16.9682 21.6672 17.5982 20.6001 18.6732 20.6001C19.0669 20.6001 19.4371 20.7537 19.7166 21.0332L21.4058 22.7224L22.532 23.8486C23.5164 23.3367 24.8394 23.2579 25.5836 24.0455C26.883 25.4236 26.568 26.4907 26.2923 27.4357C26.0679 28.1878 25.8789 28.8414 26.4656 29.684L26.8554 30.0699L21.3271 35.5982ZM24.5913 40.0004C24.2724 40.0004 23.9377 39.8469 23.6699 39.5831L21.8075 37.7206C21.398 37.3111 21.209 36.6338 21.6145 36.2283L27.4539 30.3928C27.8516 29.9912 28.5289 30.1684 28.9463 30.5857L30.8087 32.4482C31.2182 32.8577 31.4072 33.535 31.0017 33.9405L25.1623 39.776C25.0205 39.9217 24.8158 40.0004 24.5913 40.0004Z" fill="#1769AB"/>
<path fill-rule="evenodd" clip-rule="evenodd" d="M17.6887 37.2363C17.2635 37.2363 16.9524 36.8268 17.0627 36.4173L19.5276 27.2152C19.5866 26.9908 19.752 26.8175 19.9843 26.7585C20.4608 26.6403 20.9136 27.0538 20.7797 27.5539L18.3148 36.752C18.24 37.0355 17.9841 37.2363 17.6887 37.2363ZM21.3034 23.7502C20.8782 23.7502 20.5631 23.3446 20.6734 22.9351L23.4769 12.4809C23.536 12.2525 23.7014 12.0793 23.9337 12.0202C24.4101 11.9021 24.863 12.3195 24.7291 12.8156L21.9295 23.2698C21.8507 23.5533 21.5948 23.7502 21.3034 23.7502ZM34.2973 23.7266C30.0802 23.7266 26.6427 21.0608 23.3982 20.293L25.3552 12.9849C25.3985 12.8235 25.4103 12.666 25.3945 12.5163C29.0407 13.3511 32.742 16.4342 37.3174 15.879C37.6403 15.8396 37.8136 16.2491 37.5576 16.4539L33.9115 19.3795L35.7385 23.191C35.833 23.3919 35.707 23.6242 35.4865 23.6517C35.0927 23.699 34.695 23.7266 34.2973 23.7266Z" fill="#1769AB"/>
</g>
<defs>
<clipPath id="clip0_4001_7996">
<rect width="28" height="28" fill="white" transform="translate(12 12)"/>
</clipPath>
</defs>
</svg>
